<svg xmlns="http://www.w3.org/2000/svg" viewBox="0 0 905.2 168.84"><defs><style>.cls-1{fill:none;stroke:#fff;stroke-miterlimit:10;stroke-width:8px;}</style></defs><g id="Ebene_2" data-name="Ebene 2"><g id="Startseite"><path class="cls-1" d="M184.86,31.88S198.51,142.2,203.24,142.2c3.1,0,24.43-110.32,24.43-110.32"/><ellipse class="cls-1" cx="146.91" cy="87.14" rx="17.03" ry="55.17"/><ellipse class="cls-1" cx="491.51" cy="87.14" rx="17.03" ry="55.17"/><line class="cls-1" x1="252.77" y1="34.32" x2="285.99" y2="34.32"/><line class="cls-1" x1="252.77" y1="140.88" x2="285.99" y2="140.88"/><line class="cls-1" x1="252.77" y1="87.96" x2="281.03" y2="87.96"/><line class="cls-1" x1="255.49" y1="143.45" x2="255.49" y2="34.32"/><line class="cls-1" x1="411.4" y1="39.8" x2="457.6" y2="39.8"/><line class="cls-1" x1="434.5" y1="145.4" x2="434.5" y2="39.8"/><line class="cls-1" x1="61.53" y1="81.72" x2="107.73" y2="81.72"/><line class="cls-1" x1="63.04" y1="140.57" x2="63.04" y2="34.96"/><line class="cls-1" x1="108.35" y1="140.57" x2="108.35" y2="34.96"/><path class="cls-1" d="M603.84,40.6s-28.73-22.85-29.51,19.46c-.45,24,17.23,18.37,26.78,31.77,6.81,9.56,18.8,40.68-8.74,47.53C565.81,146,574,102.23,574,102.23"/><line class="cls-1" x1="618.59" y1="34.44" x2="664.79" y2="34.44"/><line class="cls-1" x1="641.69" y1="140.04" x2="641.69" y2="34.44"/><line class="cls-1" x1="802.74" y1="34.44" x2="848.94" y2="34.44"/><line class="cls-1" x1="825.84" y1="140.04" x2="825.84" y2="34.44"/><path class="cls-1" d="M671.06,139.34l10.59-52.1,10.4-51.18a.42.42,0,0,1,.81,0l15.46,51.22L724.27,140"/><line class="cls-1" x1="681.65" y1="87.24" x2="708.32" y2="87.24"/><path class="cls-1" d="M735.73,139.34V31.77a2.25,2.25,0,0,1,1.91-2.24c8.91-1.39,45.94-5.08,45.84,29.45-.08,28-47.75,24.17-47.75,24.17"/><line class="cls-1" x1="787.37" y1="137.77" x2="757.32" y2="81.19"/><path class="cls-1" d="M303.75,142.78V35.21A2.27,2.27,0,0,1,305.66,33c8.91-1.38,45.94-5.07,45.84,29.46-.08,28-47.75,24.16-47.75,24.16"/><line class="cls-1" x1="355.39" y1="141.2" x2="325.34" y2="84.63"/><rect class="cls-1" x="4" y="4" width="897.2" height="160.84" rx="9.08"/></g></g></svg>