<svg xmlns="http://www.w3.org/2000/svg" viewBox="0 0 1719.77 1116.03"><defs><style>.cls-1{fill:#fff;}</style></defs><g id="Ebene_2" data-name="Ebene 2"><g id="Stars"><circle class="cls-1" cx="6.78" cy="83.75" r="6.78"/><circle class="cls-1" cx="84.68" cy="214.74" r="6.78"/><circle class="cls-1" cx="970.4" cy="839.38" r="6.78"/><circle class="cls-1" cx="1268.18" cy="461.69" r="6.78"/><circle class="cls-1" cx="332.09" cy="991.29" r="6.78"/><circle class="cls-1" cx="128.22" cy="1020.74" r="6.78"/><circle class="cls-1" cx="1211.83" cy="40.74" r="6.78"/><circle class="cls-1" cx="1218.61" cy="70.19" r="6.78"/><circle class="cls-1" cx="1562.31" cy="647.89" r="6.78"/><circle class="cls-1" cx="1569.09" cy="677.34" r="6.78"/><circle class="cls-1" cx="1130.41" cy="1079.8" r="6.78"/><circle class="cls-1" cx="1137.19" cy="1109.25" r="6.78"/><circle class="cls-1" cx="371.03" cy="376.72" r="6.78"/><circle class="cls-1" cx="338.87" cy="18.86" r="6.78"/><circle class="cls-1" cx="6.78" cy="537.38" r="6.78"/><circle class="cls-1" cx="96.76" cy="635.07" r="12.08"/><circle class="cls-1" cx="302.15" cy="534.56" r="3.39"/><circle class="cls-1" cx="618.84" cy="707.71" r="6.78"/><circle class="cls-1" cx="422.67" cy="802.18" r="6.78"/><circle class="cls-1" cx="696.74" cy="923.05" r="12.08"/><circle class="cls-1" cx="914.21" cy="704.89" r="3.39"/><circle class="cls-1" cx="1137.19" cy="201.46" r="6.78"/><circle class="cls-1" cx="937.39" cy="69.94" r="6.78"/><circle class="cls-1" cx="1225.98" cy="329.26" r="3.39"/><circle class="cls-1" cx="40.41" cy="729.03" r="6.78"/><circle class="cls-1" cx="1626.08" cy="369.94" r="6.78"/><circle class="cls-1" cx="129.2" cy="856.83" r="3.39"/><circle class="cls-1" cx="514.4" cy="201.46" r="6.78"/><circle class="cls-1" cx="415.89" cy="70.19" r="12.08"/><circle class="cls-1" cx="809.77" cy="198.64" r="3.39"/><circle class="cls-1" cx="1222" cy="795.4" r="3.39"/><circle class="cls-1" cx="1421.01" cy="916.27" r="6.78"/><circle class="cls-1" cx="1510.99" cy="1013.96" r="12.08"/><circle class="cls-1" cx="1716.38" cy="913.45" r="3.39"/><circle class="cls-1" cx="1396.85" cy="123.83" r="6.78"/><circle class="cls-1" cx="1595.33" cy="12.08" r="12.08"/><circle class="cls-1" cx="1692.22" cy="121" r="3.39"/></g></g></svg>