<svg xmlns="http://www.w3.org/2000/svg" viewBox="0 0 579.85 159.08"><defs><style>.cls-1{fill:none;stroke:#fff;stroke-miterlimit:10;stroke-width:8px;}</style></defs><g id="Ebene_2" data-name="Ebene 2"><g id="Startseite"><path class="cls-1" d="M11.42,148.83A7.42,7.42,0,0,1,4,141.37c.18-27.19.25-117.84,25.73-132.69C42,1.51,57,8,65,14c6.14,4.58,8.65,13.65,10,21.19C78.85,57.38,88,112.77,88,140.89a7.92,7.92,0,0,1-7.91,7.94H69.22a8.14,8.14,0,0,1-8.15-7.93c-.27-10.5-1.39-27.82-5.84-28.94-3.64-.92-12.9-.93-18.79-.07a7.64,7.64,0,0,0-6.53,7c-.35,5.34-.66,14.17-.44,20.91a8.74,8.74,0,0,1-8.75,9Z"/><path class="cls-1" d="M56.23,64.5H29.93a7.7,7.7,0,0,1-7.7-7.7V44.17a8.94,8.94,0,0,1,8.84-8.83H49.29A11.85,11.85,0,0,1,61.14,47.19v12.4A4.91,4.91,0,0,1,56.23,64.5Z"/><path class="cls-1" d="M77.2,40.7c-.12-1.39,0-2.72,1.36-2.94,3.33-.52,10.46,1,12.67,6.7C93.29,49.77,99,82.23,99,87.67S94.86,104,88,104.37C88,104.37,78.61,56.93,77.2,40.7Z"/><path class="cls-1" d="M454.18,3.72S449.51,153,483.09,154.82,512.41,3.75,512.41,3.75"/><path class="cls-1" d="M239.91,4.45s18.59,150.24,25,150.24c4.22,0,33.27-150.24,33.27-150.24"/><path class="cls-1" d="M567.73,14.36s-40.17-31.94-41.27,27.21c-.62,33.61,24.1,25.69,37.45,44.43,9.52,13.36,26.28,56.87-12.23,66.45C514.55,161.68,526,100.54,526,100.54"/><path class="cls-1" d="M109.18,148V4.7s57.09-8.88,53.65,36.79C160.66,70.15,124,68,124,68s43.36,10.21,42.7,47.06C166.16,146.62,123.89,160.42,109.18,148Z"/><ellipse class="cls-1" cx="199.46" cy="79.91" rx="23.09" ry="74.78"/><line class="cls-1" x1="314.75" y1="9.64" x2="360.09" y2="9.64"/><line class="cls-1" x1="314.75" y1="155.08" x2="360.09" y2="155.08"/><line class="cls-1" x1="314.75" y1="82.85" x2="353.31" y2="82.85"/><line class="cls-1" x1="318.46" y1="158.58" x2="318.46" y2="9.64"/></g></g></svg>