<svg xmlns="http://www.w3.org/2000/svg" viewBox="0 0 1179.24 1280.99"><defs><style>.cls-1{fill:#6c6c6c;}.cls-2{fill:#3a3a3a;}.cls-3{fill:none;stroke:#000;stroke-miterlimit:10;stroke-width:10px;}.cls-4{fill:#85b5c9;}.cls-5{fill:#436066;}.cls-6{fill:#c1e4ef;}</style></defs><g id="Ebene_2" data-name="Ebene 2"><g id="Weapon"><path class="cls-1" d="M594.83,5c-38.31-.32-142.58,139.33-162.21,219.82C395.71,376.19,273.58,769,273.58,769L38.45,1011.75,8.34,1152.17l310.44,58.74-.71,42s77.44,32.87,242.41,15.86l12-202.67h29.94l11.84,204.58s178.15,17.37,238.63-10.8l.46-48,322.3-59.45-31.17-146.65L915.58,767.47S806,342.71,750.75,203.74C729.34,149.92,650.28,5.46,594.83,5Z"/><path class="cls-2" d="M618.9,18.39S1014.49,1057.11,767.15,1276l77.37-16.1.46-48,322.3-59.45-31.17-146.65L907.19,767.47S744.66,59.63,618.9,18.39Z"/><path class="cls-3" d="M592.45,5c-38.32-.32-142.58,139.33-162.21,219.82C393.33,376.19,271.2,769,271.2,769L36.07,1011.75,6,1152.17l310.44,58.74-.71,42s77.44,32.87,242.41,15.86l12-202.67h29.94l11.84,204.58s178.15,17.37,238.63-10.8l.46-48,322.3-59.45-31.17-146.65L913.19,767.47S803.65,342.71,748.37,203.74C727,149.92,647.9,5.46,592.45,5Z"/><rect class="cls-4" x="468.33" y="379.93" width="247.34" height="231.89"/><polygon class="cls-5" points="526 614.51 713.29 479.6 713.29 614.51 526 614.51"/><rect class="cls-3" x="465.95" y="382.62" width="247.34" height="231.89"/><rect class="cls-6" x="506" y="404.93" width="57.33" height="21.33"/></g></g></svg>