<svg xmlns="http://www.w3.org/2000/svg" viewBox="0 0 362.09 144.43"><defs><style>.cls-1{fill:none;stroke:#fff;stroke-miterlimit:10;stroke-width:8px;}</style></defs><g id="Ebene_2" data-name="Ebene 2"><g id="Startseite"><path class="cls-1" d="M78.82,28.45S50.09,5.6,49.31,47.91c-.44,24,17.23,18.37,26.78,31.77,6.81,9.56,18.8,40.68-8.74,47.53C40.79,133.81,49,90.08,49,90.08"/><rect class="cls-1" x="4" y="4" width="354.09" height="136.43" rx="9.08"/><line class="cls-1" x1="93.57" y1="22.29" x2="139.77" y2="22.29"/><line class="cls-1" x1="116.67" y1="127.89" x2="116.67" y2="22.29"/><line class="cls-1" x1="277.72" y1="22.29" x2="323.92" y2="22.29"/><line class="cls-1" x1="300.82" y1="127.89" x2="300.82" y2="22.29"/><path class="cls-1" d="M146,127.19l10.59-52.1L167,23.91a.42.42,0,0,1,.81,0l15.47,51.22,15.94,52.8"/><line class="cls-1" x1="156.63" y1="75.09" x2="183.31" y2="75.09"/><path class="cls-1" d="M210.71,127.19V19.62a2.27,2.27,0,0,1,1.91-2.25c8.91-1.38,45.94-5.07,45.84,29.46-.08,28-47.75,24.16-47.75,24.16"/><line class="cls-1" x1="262.35" y1="125.62" x2="232.3" y2="69.04"/></g></g></svg>