<svg xmlns="http://www.w3.org/2000/svg" viewBox="0 0 2086.17 343"><defs><style>.cls-1{fill:#ededed;}.cls-2,.cls-3{font-size:72px;}.cls-2{fill:#1d1d1b;font-family:ArialMT, Arial;}.cls-3,.cls-6{fill:none;}.cls-3{stroke:#1d1d1b;stroke-width:3px;font-family:Arial-BoldMT, Arial;font-weight:700;}.cls-4{fill:#50af43;}.cls-5{fill:#1a6c4f;}.cls-6{stroke:#000;stroke-miterlimit:10;stroke-width:10px;}.cls-7{fill:#fff;}.cls-8{fill:#38132a;}</style></defs><g id="Ebene_2" data-name="Ebene 2"><g id="Charakter"><rect class="cls-1" width="2086.17" height="343" rx="13.41"/><text class="cls-2" transform="translate(334.51 201.5)">If you give me all your children then you could <tspan x="0" y="86.4">exchange them with one of my Items</tspan></text><text class="cls-3" transform="translate(334.51 106.25)">Peter</text></g><g id="Rüstung"><path class="cls-4" d="M174.85,97.71S137.51,89.76,124,181c-2,13.72-71.9,28-35.95,63.23,13,12.79,29.84-18.31,50.19-10.85S152.46,268,174.17,263.9s21.7-33.91,37.3-31.2,33.66,43.55,57.65,23.06c27.81-23.74-25-40.41-42.05-63.75C211.62,170.8,233.86,104.49,174.85,97.71Z"/><path class="cls-5" d="M220.55,168c-3.82-3.91-10.71,31.05,5.55,50,15.86,18.51-21.71-1.36-30.75,6.33s-11.76,27.58-19.44,27.13-22.61-26.23-30.75-28-27.67,3.63-30.83,14.94l19.16-7,16.58,11.25,10.35,19.6,12,2.12,15.3-8.15,11.38-16.62,10.45-7,17,10.46,20.25,16.4,16.52.26,12.86-12.84-1.92-14.44s-18.27-17.1-24.6-20.27S230,195.85,230,195.85l-7.47-15.37Z"/><path class="cls-6" d="M174.85,97.71S137.51,89.76,124,181c-2,13.72-71.9,28-35.95,63.23,13,12.79,29.84-18.31,50.19-10.85S152.46,268,174.17,263.9s21.7-33.91,37.3-31.2,33.66,43.55,57.65,23.06c27.81-23.74-25-40.41-42.05-63.75C211.62,170.8,233.86,104.49,174.85,97.71Z"/><circle class="cls-7" cx="150.59" cy="149.35" r="37.98"/><circle class="cls-6" cx="150.59" cy="149.35" r="37.98"/><circle class="cls-8" cx="150.59" cy="149.35" r="9.83"/><path class="cls-6" d="M174.85,97.71s1.6-7.44-7.22-13.54"/><circle cx="163.16" cy="80.1" r="8.14"/></g></g></svg>