<svg xmlns="http://www.w3.org/2000/svg" viewBox="0 0 2086.17 261.68"><defs><style>.cls-1{fill:#ededed;}.cls-2{fill:#6c6c6c;}.cls-3{fill:#444;}.cls-10,.cls-4{fill:none;}.cls-4{stroke:#000;stroke-miterlimit:10;stroke-width:10px;}.cls-5{fill:#85b5c9;}.cls-6{fill:#436066;}.cls-7{fill:#c1e4ef;}.cls-10,.cls-8{font-size:72px;}.cls-8{fill:#1d1d1b;font-family:ArialMT, Arial;}.cls-9{letter-spacing:-0.09em;}.cls-10{stroke:#1d1d1b;stroke-width:3px;font-family:Arial-BoldMT, Arial;font-weight:700;}</style></defs><g id="Ebene_2" data-name="Ebene 2"><g id="Charakter"><rect class="cls-1" width="2086.17" height="261.68" rx="13.41"/><path class="cls-2" d="M106.49,109.16s-37.57-8.3-40.11,8.94c-1.26,8.62,3.83,32.78,4.15,56.62l28.4,3.72Z"/><polyline class="cls-3" points="104.24 176.13 104.15 132.99 67.5 141.47 67.5 172.61"/><path class="cls-4" d="M108,109.24s-37.57-8.3-40.11,8.94c-1.16,7.93-1.25,30.55-1,52.67,0,0,3.46,11.57,34.87,3.87"/><path class="cls-2" d="M244.66,183.84c-2.38-56.08-11.13-109.45-11.13-109.45S213.39,22.72,149.7,36.27C110.88,44.52,93.11,145,102.13,181.46,108,205.05,245.72,208.81,244.66,183.84Z"/><path class="cls-3" d="M104,120.4s34.61,90.31,128.65,74.42c0,0-62.32,28.45-130.53-13.36C102.13,181.46,99.39,143.05,104,120.4Z"/><path class="cls-4" d="M244,180.72c3.26-14.72-6-80.83-8.12-98.25-1.45-12-5.85-17.59-16.77-28.68C200.56,35,165.13,31,145.14,37.31,108.94,48.76,96.33,149.9,101.7,174.72,109.24,209.51,236.26,215.48,244,180.72Z"/><ellipse class="cls-5" cx="208.16" cy="102.75" rx="52.67" ry="34.29"/><path class="cls-6" d="M165.65,78.78a1,1,0,0,1,1.75.84c-.72,8.68-.11,35.56,33.87,39.87,40.65,5.16,60.65-16.77,60.65-16.77s3.22,22.47-9.36,32.52-65.93,12.24-78.84,7.31c-11-4.21-23.41-21.45-22.44-37.25C152,93.12,161.39,82.85,165.65,78.78Z"/><path class="cls-4" d="M194.65,71S148,69.49,151,113.62s84.71,28.94,84.71,28.94,26.88-8.78,26.88-33.32S241.32,70,194.65,71Z"/><ellipse class="cls-7" cx="219.08" cy="93.52" rx="25.4" ry="13.64"/><text class="cls-8" transform="translate(334.51 201.5)"><tspan class="cls-9">Y</tspan><tspan x="41.41" y="0">ou are the Imposter! Head out Mother#^@%*&amp;</tspan></text><text class="cls-10" transform="translate(334.51 106.25)">Sven</text></g></g></svg>