<svg xmlns="http://www.w3.org/2000/svg" viewBox="0 0 2086.17 261.68"><defs><style>.cls-1{fill:#ededed;}.cls-2,.cls-3{font-size:72px;}.cls-2{fill:#1d1d1b;font-family:ArialMT, Arial;}.cls-3,.cls-6{fill:none;}.cls-3{stroke:#1d1d1b;stroke-width:3px;font-family:Arial-BoldMT, Arial;font-weight:700;}.cls-4{fill:#42c0ef;}.cls-5{fill:#1b85bb;}.cls-6{stroke:#000;stroke-miterlimit:10;stroke-width:10px;}.cls-7{fill:#85b5c9;}.cls-8{fill:#436066;}.cls-9{fill:#c1e4ef;}</style></defs><g id="Ebene_2" data-name="Ebene 2"><g id="Charakter"><rect class="cls-1" width="2086.17" height="261.68" rx="13.41"/><text class="cls-2" transform="translate(334.51 201.5)">Don‘t you dare it. It‘s black. ITS BLACK</text><text class="cls-3" transform="translate(334.51 106.25)">itsblack</text><path class="cls-4" d="M94.59,120.49s-39.51-8.73-42.18,9.41c-1.33,9.06,4,34.47,4.36,59.53l29.87,3.92Z"/><polyline class="cls-5" points="92.22 190.92 92.13 145.55 53.59 154.48 53.59 187.22"/><path class="cls-6" d="M96.13,120.58S56.63,111.85,54,130c-1.23,8.34-1.32,32.13-1.07,55.39,0,0,3.63,12.16,36.67,4.06"/><path class="cls-4" d="M239.88,199c-2.5-59-11.7-115.09-11.7-115.09S207,29.6,140,43.84C99.2,52.53,80.52,158.13,90,196.52,96.13,221.32,241,225.28,239.88,199Z"/><path class="cls-5" d="M90.4,129.23s36.4,95,135.29,78.26c0,0-65.53,29.92-137.26-14.05C88.43,193.44,85.55,153.05,90.4,129.23Z"/><path class="cls-6" d="M239.16,195.75c3.43-15.48-6.32-85-8.54-103.33-1.53-12.58-6.16-18.49-17.64-30.15-19.48-19.76-56.73-24-77.75-17.33C97.17,57,83.9,163.33,89.56,189.43,97.48,226,231.05,232.29,239.16,195.75Z"/><ellipse class="cls-7" cx="201.5" cy="113.76" rx="55.39" ry="36.05"/><path class="cls-8" d="M156.8,88.55a1.09,1.09,0,0,1,1.84.88c-.75,9.13-.12,37.39,35.62,41.93C237,136.79,258,113.72,258,113.72s3.39,23.63-9.84,34.2-69.33,12.87-82.9,7.69c-11.58-4.43-24.62-22.56-23.61-39.18C142.47,103.62,152.32,92.83,156.8,88.55Z"/><path class="cls-6" d="M187.3,80.38s-49.07-1.6-45.87,44.8,89.07,30.43,89.07,30.43,28.27-9.23,28.27-35S236.37,79.32,187.3,80.38Z"/><ellipse class="cls-9" cx="212.98" cy="104.05" rx="26.71" ry="14.34"/></g></g></svg>