<svg xmlns="http://www.w3.org/2000/svg" viewBox="0 0 2086.17 261.68"><defs><style>.cls-1{fill:#ededed;}.cls-2,.cls-3{font-size:72px;}.cls-2{fill:#1d1d1b;font-family:ArialMT, Arial;}.cls-3,.cls-5{fill:none;}.cls-3{stroke:#1d1d1b;stroke-width:3px;font-family:Arial-BoldMT, Arial;font-weight:700;}.cls-4{fill:#daeef4;}.cls-5{stroke:#000;stroke-miterlimit:10;stroke-width:10px;}.cls-6{fill:#8ec8df;}.cls-7{fill:#46626e;}.cls-8{fill:#c1e4ef;}</style></defs><g id="Ebene_2" data-name="Ebene 2"><g id="Charakter"><rect class="cls-1" width="2086.17" height="261.68" rx="13.41"/><text class="cls-2" transform="translate(334.51 201.5)">Help me blue!</text><text class="cls-3" transform="translate(334.51 106.25)">imnotfourteen</text></g><g id="Kinder"><path class="cls-4" d="M221.82,187c9.89-5.53,1.57-85.13,1.57-85.13,0-8.56-3.36-16.46-7.67-23.86-3.56-6.1-29.93-22-60.67-11.28C121.63,78.43,114.8,132,115.44,173.93,115.44,173.93,159.34,221.89,221.82,187Z"/><path class="cls-4" d="M117.59,125.92s-28.73,8.43-31.09,41.71c0,0,15,10.29,28.14,4.66"/><path class="cls-5" d="M220,189c10.61-5.06,1.62-88.23,1.62-88.23,0-8.55-3.36-16.46-7.67-23.85-3.56-6.11-29.92-22.06-60.67-11.28C119.85,77.33,113,130.88,113.66,172.83,113.66,172.83,158.07,218.5,220,189Z"/><path class="cls-5" d="M116.61,126.47s-28.73,8.42-31.1,41.71c0,0,15,10.29,28.15,4.65"/><circle class="cls-6" cx="196.25" cy="126.47" r="41.7"/><path class="cls-7" d="M157.5,111s23.09,56.27,77.75,28.94c0,0-26.95,46.53-63.86,20.88C142.82,141,157.5,111,157.5,111Z"/><circle class="cls-5" cx="194.97" cy="126.47" r="41.7"/><ellipse class="cls-8" cx="207.28" cy="104.07" rx="10.33" ry="16.92" transform="translate(54.02 278.16) rotate(-75.3)"/></g></g></svg>